<!DOCTYPE svg PUBLIC "-//W3C//DTD SVG 1.1//EN" "http://www.w3.org/Graphics/SVG/1.1/DTD/svg11.dtd">
<!-- Uploaded to: SVG Repo, www.svgrepo.com, Transformed by: SVG Repo Mixer Tools -->
<svg width="800px" height="800px" viewBox="0 0 32 32" xmlns="http://www.w3.org/2000/svg" xmlns:xlink="http://www.w3.org/1999/xlink" fill="#000000">
<g id="SVGRepo_bgCarrier" stroke-width="0"/>
<g id="SVGRepo_tracerCarrier" stroke-linecap="round" stroke-linejoin="round"/>
<g id="SVGRepo_iconCarrier"> <defs> <clipPath id="clip-shoppingcart"> <rect width="32" height="32"/> </clipPath> </defs> <g id="shoppingcart" clip-path="url(#clip-shoppingcart)"> <g id="Group_2537" data-name="Group 2537" transform="translate(0 -260)"> <g id="Group_2520" data-name="Group 2520"> <g id="Group_2519" data-name="Group 2519"> <g id="Group_2518" data-name="Group 2518"> <g id="Group_2517" data-name="Group 2517"> <g id="Group_2516" data-name="Group 2516"> <g id="Group_2515" data-name="Group 2515"> <g id="Group_2514" data-name="Group 2514"> <g id="Group_2513" data-name="Group 2513"> <path id="Path_3885" data-name="Path 3885" d="M28.6,264.583H9.979a1,1,0,0,0-1-1H3.4a1,1,0,1,0,0,2h2.31a1.071,1.071,0,0,0-.011.126l1.274,10.052a3.573,3.573,0,0,0-.74,2.177,3.65,3.65,0,0,0,3.646,3.645H28.209a1,1,0,1,0,0-2H9.875a1.64,1.64,0,0,1-1.433-.852l20.3-2.76a1,1,0,0,0,.865-.992v-9.4A1,1,0,0,0,28.6,264.583Zm-1,9.523-18.51,2.517-1.272-10.04H27.6Z" fill="#3b586e"/> </g> </g> </g> </g> </g> </g> </g> </g> <g id="Group_2528" data-name="Group 2528"> <g id="Group_2527" data-name="Group 2527"> <g id="Group_2526" data-name="Group 2526"> <g id="Group_2525" data-name="Group 2525"> <g id="Group_2524" data-name="Group 2524"> <g id="Group_2523" data-name="Group 2523"> <g id="Group_2522" data-name="Group 2522"> <g id="Group_2521" data-name="Group 2521"> <path id="Path_3886" data-name="Path 3886" d="M10.4,282a3.208,3.208,0,1,0,3.208,3.208A3.212,3.212,0,0,0,10.4,282Zm0,4.417a1.208,1.208,0,1,1,1.208-1.209A1.209,1.209,0,0,1,10.4,286.417Z" fill="#3b586e"/> </g> </g> </g> </g> </g> </g> </g> </g> <g id="Group_2536" data-name="Group 2536"> <g id="Group_2535" data-name="Group 2535"> <g id="Group_2534" data-name="Group 2534"> <g id="Group_2533" data-name="Group 2533"> <g id="Group_2532" data-name="Group 2532"> <g id="Group_2531" data-name="Group 2531"> <g id="Group_2530" data-name="Group 2530"> <g id="Group_2529" data-name="Group 2529"> <path id="Path_3887" data-name="Path 3887" d="M26.4,282a3.208,3.208,0,1,0,3.208,3.208A3.212,3.212,0,0,0,26.4,282Zm0,4.417a1.208,1.208,0,1,1,1.208-1.209A1.21,1.21,0,0,1,26.4,286.417Z" fill="#3b586e"/> </g> </g> </g> </g> </g> </g> </g> </g> </g> </g> </g>
</svg>